<?xml version="1.0" encoding="UTF-8"?>
<svg width="939px" height="327px" viewBox="0 0 939 327" version="1.1" xmlns="http://www.w3.org/2000/svg" xmlns:xlink="http://www.w3.org/1999/xlink">
    <title>Logo / Alt / Lrg</title>
    <g id="Logo-/-Alt-/-Lrg" stroke="none" stroke-width="1" fill="none" fill-rule="evenodd">
        <path d="M14,146.436479 L37.8041419,146.436479 L37.8041419,132.355691 C48.9314497,144.448822 59.2778937,149 75.2917001,149 C92.0680687,149 105.336651,142.659311 115.298764,129.792171 C123.497833,119.079874 128,105.413955 128,90.7573037 C128,57.6668329 104.574089,32.7065619 73.5286563,32.7065619 C59.4670092,32.7065619 49.9075293,36.6694926 39.9515171,46.7563895 L39.9515171,0 L14,0 L14,146.436479 M69.8073527,56.8680547 C88.3711671,56.8680547 101.834965,71.3327515 101.834965,90.9492582 C101.834965,110.974442 88.9446139,124.832315 70.4052015,124.832315 C51.6766736,124.832315 38.4019907,110.757719 38.4019907,90.7573037 C38.4019907,70.9426505 51.6766736,56.8680547 69.8073527,56.8680547" id="Shape" fill="#FFCC00" fill-rule="nonzero"></path>
        <path d="M142,142 L168.383032,142 L168.383032,80.0774869 C168.383032,62.7748691 176.13545,54.1361257 192,53.7465969 L192,28 L190.015381,28 C178.703051,28 173.15232,31.2167539 166.19995,41.4764398 L166.19995,30.626178 L142,30.626178 L142,142" id="Path" fill="#FFCC00" fill-rule="nonzero"></path>
        <path d="M199,142 L227,142 L227,35.5585437 L199,35.5585437 L199,142 M199,24.0179289 L227,24.0179289 L227,0 L199,0 L199,24.0179289" id="Shape" fill="#FFCC00" fill-rule="nonzero"></path>
        <path d="M331.084346,31.5860797 L331.084346,45.4321237 C323.038731,34.3392029 311.276923,29 295.559763,29 C264.757074,29 242,53.1470553 242,85.6277216 C242,119.481856 264.370737,143.820702 295.369661,143.820702 C310.675955,143.820702 320.880151,138.889827 331.084346,126.80702 C330.103174,150.36633 320.08908,161.849018 300.661861,161.849018 C288.49532,161.849018 281.04454,158.68138 273.403658,150.174539 L243.772243,150.174539 C252.590533,172.143843 272.992792,185 299.680689,185 C319.322539,185 334.818935,178.095538 345.023131,165.022844 C352.670145,154.91981 356,141.457347 356,120.47793 L356,31.5860797 L331.084346,31.5860797 M298.509414,53.1470553 C317.145562,53.1470553 329.913072,66.8198691 329.913072,86.8093992 C329.913072,106.600952 317.550296,119.673647 298.914147,119.673647 C280.25347,119.673647 268.30156,106.792742 268.30156,86.8093992 C268.30156,66.6280785 280.25347,53.1470553 298.509414,53.1470553" id="Shape" fill="#FFCC00" fill-rule="nonzero"></path>
        <path d="M377,142 L401.910445,142 L401.910445,88.0076959 C401.910445,77.4277982 402.847368,71.4713519 405.476609,66.6857795 C409.025205,60.1408939 415.589523,56.4841642 423.846159,56.4841642 C438.438737,56.4841642 444.066132,65.3227621 444.066132,87.6294135 L444.066132,142 L469,142 L469,81.8651106 C469,66.2894837 467.126154,57.6610428 462.072624,49.7771576 C455.139393,38.824982 443.129209,32.8685357 428.331678,32.8685357 C417.650754,32.8685357 409.411686,35.9428306 401.910445,42.8599941 L401.910445,0 L377,0 L377,142" id="Path" fill="#FFCC00" fill-rule="nonzero"></path>
        <polyline id="Path" fill="#FFCC00" fill-rule="nonzero" points="496.317517 142 523.606251 142 523.606251 58.8018944 540 58.8018944 540 35.5585437 523.606251 35.5585437 523.606251 0 496.317517 0 496.317517 35.5585437 483 35.5585437 483 58.8018944 496.317517 58.8018944 496.317517 142"></polyline>
        <path d="M114,215.567734 L90.230461,215.567734 L90.230461,230.101843 C81.2658796,218.104753 70.5595384,213 54.9506918,213 C23.0021903,213 0,237.18461 0,270.399289 C0,303.220821 22.7890379,327 54.3843154,327 C69.5851274,327 79.9077942,322.110249 90.230461,310.303589 L90.230461,324.456838 L114,324.456838 L114,215.567734 M57.6912228,236.963466 C76.1989423,236.963466 89.4509322,250.932428 89.4509322,270.774006 C89.4509322,278.643065 86.3328169,287.691562 81.6434639,293.18946 C76.3877344,299.492079 68.0138896,303.024248 58.0688071,303.024248 C39.1835034,303.024248 26.1203056,290.050436 26.1203056,270.989007 C26.1203056,251.122858 39.1835034,236.963466 57.6912228,236.963466" id="Shape" fill="#FFFFFF" fill-rule="nonzero"></path>
        <path d="M128,289.858005 C129.167082,300.461228 130.923784,305.983995 135.197007,311.8815 C142.199501,321.317508 154.453865,327 167.492363,327 C189.071228,327 206,310.68357 206,289.858005 C206,280.421997 202.486596,272.552514 195.885287,267.244759 C191.806577,263.724686 185.393703,260.960231 176.038809,258.005335 C165.541147,254.669559 165.541147,254.669559 163.000312,253.502344 C159.511222,251.91739 157.75452,249.374091 157.75452,246.204182 C157.75452,240.908714 162.027743,236.964757 167.680798,236.964757 C173.115025,236.964757 176.628429,239.919653 177.795511,245.626718 L203.082294,245.626718 C202.699345,236.387293 200.565773,230.895242 195.295667,224.991593 C188.505923,217.312551 178.385131,213 167.680798,213 C147.639807,213 131.896353,227.534892 131.896353,246.204182 C131.896353,262.145875 140.442799,271.182573 161.839308,278.456162 C171.765586,281.791938 172.549719,282.197392 175.27899,283.9605 C178.385131,285.920192 180.123597,288.875088 180.123597,292.43202 C180.123597,298.526109 175.066241,303.035243 168.464931,303.035243 C160.866739,303.035243 156.593516,299.09743 154.070916,289.864148 L128,289.864148" id="Path" fill="#FFFFFF" fill-rule="nonzero"></path>
        <path d="M297.04794,288.678504 C290.447381,298.710406 282.867345,303.0291 271.899688,303.0291 C253.526679,303.0291 239.757839,288.868944 239.757839,269.824918 C239.757839,250.744032 252.915285,236.964757 271.288294,236.964757 C283.2791,236.964757 291.66393,241.885488 297.04794,251.923533 L327,251.923533 C323.200624,240.908714 319.613364,235.213935 312.014612,228.32737 C301.240355,218.485908 286.666721,213 271.288294,213 C238.560007,213 213,237.953818 213,270.009215 C213,301.659158 239.339846,327 272.093088,327 C297.852734,327 317.810376,313.054858 327,288.678504 L297.04794,288.678504" id="Path" fill="#FFFFFF" fill-rule="nonzero"></path>
        <path d="M454.007677,281.603944 C454.802768,277.856773 455,275.510184 455,271.56644 C455,237.7559 431.134948,213 398.585532,213 C366.442907,213 341,238.364048 341,270.399289 C341,302.237957 366.831207,327 400.175714,327 C418.111484,327 432.127271,320.52538 443.560554,307.348852 C447.702422,302.237957 450.469831,297.735209 452.226427,292.206596 L423.627811,292.206596 C416.934256,300.081798 410.431769,303.030391 399.571691,303.030391 C383.99654,303.030391 372.563257,294.774329 369.407548,281.610087 L454.007677,281.610087 M368.612457,258.6172 C372.754325,244.648238 383.392517,236.969609 398.973832,236.969609 C415.153006,236.969609 425.815852,244.648238 429.16263,258.6172 L368.612457,258.6172" id="Shape" fill="#FFFFFF" fill-rule="nonzero"></path>
        <path d="M469,327 L493.86139,327 L493.86139,274.536376 C493.86139,259.664352 494.796468,253.199074 497.969889,247.776786 C501.897218,241.148148 508.448609,237.516534 516.303265,237.516534 C522.673485,237.516534 527.898234,239.948082 531.276204,244.559854 C534.630797,249.404101 536.13861,257.641204 536.13861,272.513228 L536.13861,327 L561,327 L561,267.285714 C561,247.380952 559.129844,237.736442 553.513531,229.07209 C546.780968,218.617063 535.571719,213 521.165671,213 C509.383687,213 501.166688,216.820106 491.991234,226.269841 L491.991234,215.626323 L469,215.626323 L469,327" id="Path" fill="#FFFFFF" fill-rule="nonzero"></path>
        <path d="M576,289.858005 C577.161004,300.461228 578.917706,305.983995 583.197007,311.8815 C590.199501,321.317508 602.453865,327 615.486284,327 C637.071228,327 654,310.68357 654,289.858005 C654,280.421997 650.486596,272.552514 643.885287,267.244759 C639.800499,263.724686 633.387625,260.960231 624.032731,258.005335 C613.535069,254.669559 613.535069,254.669559 610.994233,253.502344 C607.505143,251.91739 605.748441,249.374091 605.748441,246.204182 C605.748441,240.908714 610.021665,236.964757 615.674719,236.964757 C621.115025,236.964757 624.628429,239.919653 625.789433,245.626718 L651.076216,245.626718 C650.693267,236.387293 648.559695,230.895242 643.289589,224.991593 C636.499844,217.312551 626.379052,213 615.674719,213 C595.633728,213 579.890274,227.534892 579.890274,246.204182 C579.890274,262.145875 588.436721,271.182573 609.833229,278.456162 C619.759507,281.791938 620.543641,282.197392 623.272911,283.9605 C626.379052,285.920192 628.117519,288.875088 628.117519,292.43202 C628.117519,298.526109 623.060162,303.035243 616.458853,303.035243 C608.860661,303.035243 604.587438,299.09743 602.064838,289.864148 L576,289.864148" id="Path" fill="#FFFFFF" fill-rule="nonzero"></path>
        <path d="M668,320 L696,320 L696,213.566052 L668,213.566052 L668,320 M668,202.018945 L696,202.018945 L696,178 L668,178 L668,202.018945" id="Shape" fill="#FFFFFF" fill-rule="nonzero"></path>
        <path d="M767.706636,213 C736.543693,213 711,238.740152 711,270.009215 C711,301.444145 736.543693,327 767.894146,327 C799.057089,327 825,301.444145 825,270.777119 C825.006045,238.365415 800.030931,213 767.706636,213 M767.900195,236.964757 C785.151109,236.964757 799.063137,251.923533 799.063137,270.009215 C799.063137,288.303767 785.145061,303.0291 768.111899,303.0291 C750.673475,303.0291 736.948955,288.303767 736.948955,269.609905 C736.942908,251.726949 751.072689,236.964757 767.900195,236.964757" id="Shape" fill="#FFFFFF" fill-rule="nonzero"></path>
        <path d="M846,327 L870.86139,327 L870.86139,274.536376 C870.86139,259.664352 871.796468,253.199074 874.969889,247.776786 C878.897218,241.148148 885.448609,237.516534 893.303265,237.516534 C899.673485,237.516534 904.898234,239.948082 908.276204,244.559854 C911.630797,249.404101 913.13861,257.641204 913.13861,272.513228 L913.13861,327 L938,327 L938,267.285714 C938,247.380952 936.129844,237.736442 930.513531,229.07209 C923.780968,218.617063 912.571719,213 898.165671,213 C886.383687,213 878.166688,216.820106 868.991234,226.269841 L868.991234,215.626323 L846,215.626323 L846,327" id="Path" fill="#FFFFFF" fill-rule="nonzero"></path>
        <path d="M569,115.609445 C569,115.609445 757.687101,18.592258 939,170 C751.548017,37.1343536 569,115.609445 569,115.609445 L569,115.609445 Z" id="Path" fill="#FFFFFF" fill-rule="nonzero"></path>
        <polygon id="Path" fill="#FFCC00" fill-rule="nonzero" points="913.87158 63.7679269 939 60.4970101 913.87158 57.2380529 900.730976 55.5099086 904.67913 51.0011861 916.207024 37.8158636 900.384542 47.419323 894.752001 50.8516926 892.428503 30.3890289 889 0 885.571497 30.3890289 883.242026 50.8636521 877.591566 47.419323 861.792976 37.8158636 873.32087 51.0011861 877.269024 55.5099086 864.12842 57.2380529 839 60.4970101 864.12842 63.7679269 877.28097 65.4841117 861.792976 83.1781567 877.591566 73.5627378 883.242026 70.1303682 885.571497 90.6169508 889 121 892.428503 90.6169508 894.757974 70.1423277 900.384542 73.5627378 916.207024 83.1781567 900.71903 65.4841117"></polygon>
    </g>
</svg>